<?xml version="1.0" encoding="UTF-8"?>
<svg xmlns="http://www.w3.org/2000/svg" xmlns:xlink="http://www.w3.org/1999/xlink" width="1920" height="935" viewBox="0 0 1920 935">
  <defs>
    <linearGradient id="linear-gradient" x1="0.072" y1="0.741" x2="1.218" y2="0.066" gradientUnits="objectBoundingBox">
      <stop offset="0" stop-color="#BC9067"></stop>
      <stop offset="0.498" stop-color="#edd598" stop-opacity="0.349"></stop>
      <stop offset="1" stop-color="#white" stop-opacity="1"></stop>
    </linearGradient>
  </defs>
  <path id="Union_8" data-name="Union 8" d="M1724.479,930.052c-14.725-1.851-29.721-4.251-44.57-7.133-15.93-3.092-32.113-6.821-48.1-11.083-17.035-4.542-34.31-9.812-51.343-15.666-18.052-6.2-36.322-13.228-54.3-20.88-18.966-8.072-38.136-17.065-56.976-26.728-19.791-10.152-39.765-21.325-59.365-33.209a431.965,431.965,0,0,0-50.2-24.517,376.255,376.255,0,0,0-48.448-16.07,362.57,362.57,0,0,0-47.046-8.788,390.34,390.34,0,0,0-45.993-2.67c-14.983,0-30.161.781-46.4,2.388-14.509,1.436-29.57,3.507-46.047,6.33-30.666,5.256-60.737,12.163-92.574,19.475l-6.848,1.572c-33.4,7.662-66.156,14.992-99.714,20.464-18.4,3-35.5,5.205-52.287,6.744-18.788,1.722-36.606,2.558-54.469,2.558-14.673,0-29.392-.593-43.75-1.764-15.167-1.237-30.473-3.162-45.494-5.721-101.864-16.883-180.633-47.183-256.809-76.487-101.015-38.857-196.427-75.56-334.7-77.466-2.473-.033-4.856-.05-7.286-.05A619.3,619.3,0,0,0,66.3,665c-21.223,2.27-43.53,5.645-66.3,10.029V587.493H0V282.657c.331.083,8.245,2.1,21.975,5.1,17.324,3.786,36.184,7.44,54.54,10.57,25.851,4.407,51.349,7.915,75.787,10.427a847.138,847.138,0,0,0,85.911,4.715,559.145,559.145,0,0,0,56.595-2.7c17.5-1.6,34.737-3.731,51.236-6.338,15.717-2.484,31.276-5.481,46.246-8.907,14.144-3.237,28.259-6.972,41.953-11.1,12.785-3.854,25.691-8.2,38.356-12.916,11.783-4.387,23.381-9.085,35.458-14.359,10.75-4.7,21.628-9.741,33.256-15.426,21.592-10.557,42.486-21.737,62.693-32.551l.015-.008c16.329-8.737,33.214-17.772,50.242-26.353,19.085-9.616,36.4-17.664,52.939-24.6a609.8,609.8,0,0,1,58.6-21.243c10.619-3.238,21.5-6.22,32.347-8.862,11.371-2.77,23.1-5.267,34.877-7.421,13.721-2.58,27.708-4.522,41.573-5.77,13.126-1.181,26.577-1.779,39.978-1.779a490.3,490.3,0,0,1,49.779,2.58c15.342,1.551,30.972,3.776,47.783,6.8,30.658,5.518,60.6,12.912,91.125,20.641l4.837,1.225,1.4.355c29.1,7.376,56.581,14.343,84.609,19.645,15.06,2.849,28.826,4.938,42.087,6.387a387.257,387.257,0,0,0,42.4,2.409,323.628,323.628,0,0,0,42.033-2.693,303.583,303.583,0,0,0,42.99-8.863,321.831,321.831,0,0,0,44.273-16.209,380.645,380.645,0,0,0,45.879-24.731c17.906-11.982,36.157-23.25,54.245-33.491,17.213-9.746,34.728-18.815,52.061-26.957,16.43-7.718,33.124-14.8,49.62-21.061,15.565-5.9,31.35-11.22,46.916-15.8,14.61-4.3,29.4-8.061,43.952-11.18,13.568-2.907,27.271-5.329,40.728-7.2A516.523,516.523,0,0,1,1812.036,0h.026C1876.324,0,1915.719,12.931,1920,14.405V430.581h0V920.718c-2.221.693-14.324,4.318-34.555,7.713-11.5,1.931-23.671,3.462-36.163,4.552-15.342,1.339-31.287,2.017-47.392,2.017A623.112,623.112,0,0,1,1724.479,930.052Z" opacity="0.17" fill="url(#linear-gradient)"></path>
</svg>